<svg width="118" height="52" viewBox="0 0 118 52" fill="none" xmlns="http://www.w3.org/2000/svg">
<path d="M19.2554 49.595C19.2554 51.48 19.7754 52 21.6604 52H25.8204C27.7054 52 28.2254 51.48 28.2254 49.595V41.145C28.2254 37.7 28.0304 36.66 26.6654 34.125L24.8454 30.81C24.6504 30.485 24.5854 30.29 24.5854 30.095C24.5854 29.9 24.6504 29.705 24.9754 29.51C27.6404 27.365 28.3554 24.31 28.3554 19.63V14.95C28.3554 6.63 23.8704 3.25 13.9904 3.25H5.41035C3.52535 3.25 3.00535 3.77 3.00535 5.655V49.595C3.00535 51.48 3.52535 52 5.41035 52H9.57035C11.4554 52 11.9754 51.48 11.9754 49.595V34.255C11.9754 33.345 12.2354 33.085 13.1454 33.085H14.3154C15.4854 33.085 15.8754 33.28 16.5904 34.45L18.1504 37.245C19.1254 39 19.2554 39.715 19.2554 41.99V49.595ZM11.9754 13.195C11.9754 12.285 12.2354 12.025 13.1454 12.025H14.5104C17.6954 12.025 19.1254 13.26 19.1254 16.315V19.695C19.1254 22.815 17.5654 24.18 14.5104 24.18H13.1454C12.2354 24.18 11.9754 23.92 11.9754 23.01V13.195ZM50.3106 49.595C50.3106 51.48 50.8306 52 52.7156 52H56.8756C58.7606 52 59.2806 51.48 59.2806 49.595V41.145C59.2806 37.7 59.0856 36.66 57.7206 34.125L55.9006 30.81C55.7056 30.485 55.6406 30.29 55.6406 30.095C55.6406 29.9 55.7056 29.705 56.0306 29.51C58.6956 27.365 59.4106 24.31 59.4106 19.63V14.95C59.4106 6.63 54.9256 3.25 45.0456 3.25H36.4656C34.5806 3.25 34.0606 3.77 34.0606 5.655V49.595C34.0606 51.48 34.5806 52 36.4656 52H40.6256C42.5106 52 43.0306 51.48 43.0306 49.595V34.255C43.0306 33.345 43.2906 33.085 44.2006 33.085H45.3706C46.5406 33.085 46.9306 33.28 47.6456 34.45L49.2056 37.245C50.1806 39 50.3106 39.715 50.3106 41.99V49.595ZM43.0306 13.195C43.0306 12.285 43.2906 12.025 44.2006 12.025H45.5656C48.7506 12.025 50.1806 13.26 50.1806 16.315V19.695C50.1806 22.815 48.6206 24.18 45.5656 24.18H44.2006C43.2906 24.18 43.0306 23.92 43.0306 23.01V13.195ZM86.3709 24.83C89.8159 21.06 90.2059 19.76 90.2059 12.22V5.655C90.2059 3.77 89.6859 3.25 87.8009 3.25H83.6409C81.7559 3.25 81.2359 3.77 81.2359 5.655V12.22C81.2359 16.77 80.8459 17.68 78.1809 20.085L75.4509 22.555C74.9959 22.945 74.8009 23.01 74.4759 23.01C74.1509 23.01 73.9559 22.88 73.9559 22.36V5.655C73.9559 3.77 73.4359 3.25 71.5509 3.25H67.5209C65.6359 3.25 65.1159 3.77 65.1159 5.655V49.595C65.1159 51.48 65.6359 52 67.5209 52H71.6809C73.5659 52 74.0859 51.48 74.0859 49.595V37.245C74.0859 36.205 74.1509 35.945 74.8659 35.295L77.4659 32.76C78.0509 32.24 78.3759 32.305 78.5709 33.02L83.2509 49.855C83.7059 51.48 84.3559 52 86.3059 52H89.4909C92.0259 52 92.7409 50.83 92.0909 48.49L85.9809 26.26C85.7859 25.61 85.8509 25.35 86.3709 24.83Z" fill="black"/>
<path d="M108.923 8.79C108.923 3.222 106.516 0.379999 101.006 0.379999C95.4963 0.379999 93.0893 3.222 93.0893 8.79V15.46C93.0893 21.028 95.4963 23.87 101.006 23.87C106.516 23.87 108.923 21.028 108.923 15.46V8.79ZM106.11 15.46C106.11 19.549 104.776 20.999 101.035 20.999C97.2363 20.999 95.9313 19.549 95.9313 15.46V8.79C95.9313 4.701 97.2363 3.251 101.035 3.251C104.776 3.251 106.11 4.701 106.11 8.79V15.46ZM104.776 14.793C104.776 14.213 104.602 14.068 104.051 14.068H102.775C102.224 14.068 102.05 14.213 102.05 14.793V15.837C102.05 16.62 101.731 16.939 101.035 16.939C100.368 16.939 100.02 16.62 100.02 15.837V8.442C100.02 7.659 100.368 7.34 101.035 7.34C101.731 7.34 102.05 7.659 102.05 8.442V9.486C102.05 10.066 102.224 10.211 102.775 10.211H104.051C104.602 10.211 104.776 10.066 104.776 9.486V8.906C104.776 5.745 103.877 4.585 101.035 4.585C98.1933 4.585 97.2363 5.745 97.2363 8.906V15.373C97.2363 18.534 98.1933 19.694 101.035 19.694C103.877 19.694 104.776 18.534 104.776 15.373V14.793Z" fill="black"/>
</svg>
